<?xml version="1.0" encoding="utf-8"?>
<!-- Generator: Adobe Illustrator 16.0.0, SVG Export Plug-In . SVG Version: 6.00 Build 0)  -->
<!DOCTYPE svg PUBLIC "-//W3C//DTD SVG 1.1//EN" "http://www.w3.org/Graphics/SVG/1.1/DTD/svg11.dtd">
<svg version="1.1" id="Layer_1" xmlns="http://www.w3.org/2000/svg" xmlns:xlink="http://www.w3.org/1999/xlink" x="0px" y="0px"
	 width="109px" height="127.969px" viewBox="0 0 109 127.969" enable-background="new 0 0 109 127.969" xml:space="preserve">
<g id="vertical">
	<g>
		
			<circle fill-rule="evenodd" clip-rule="evenodd" fill="none" stroke="#000000" stroke-width="3" stroke-miterlimit="10" cx="54.497" cy="33.637" r="32"/>
		<path fill-rule="evenodd" clip-rule="evenodd" d="M84.879,37.928c-0.642-0.438-0.969-0.979-0.909-1.783
			c0.044-0.577-0.037-1.16-0.064-1.762c-1.171-0.155-2.183-0.289-3.214-0.423c-0.005-1.205,1.168-2.164,0.423-3.093
			c0.077-0.634,0.13-1.057,0.177-1.478c0.106-0.951,0.208-1.905,0.32-2.853c0.16-1.368,0.39-2.73,0.471-4.099
			c0.093-1.506,0.047-3.018,0.06-4.612c0.183,0.109,0.35,0.175,0.479,0.286c0.046,0.041,0.092,0.081,0.138,0.121
			c-0.217-0.398-0.441-0.794-0.677-1.181c-0.078-0.051-0.16-0.099-0.222-0.141c-2.649,2.974-5.229,5.87-7.876,8.84
			c-2.81-2.883-5.906-5.161-8.572-7.998c-2.08,1.731-4.093,3.421-6.122,5.092c-2.061,1.696-4.134,3.372-6.332,5.164
			c-0.857-1.288-1.61-2.417-2.487-3.736c-1.517,1.994-2.97,3.899-4.522,5.939c-0.609-0.908-1.207-1.707-1.707-2.562
			c-0.828-1.414-2.216-2.294-3.234-3.514c-1.744-2.088-3.417-4.239-5.147-6.34c-0.603-0.733-1.294-1.396-1.95-2.095
			c-0.311,0.193-0.496,0.258-0.608,0.389c-0.998,1.189-1.939,2.434-2.981,3.58c-1.508,1.654-3.071,3.257-4.637,4.857
			c-0.741,0.755-1.486,1.505-2.229,2.261c-0.087,0.396-0.163,0.796-0.235,1.196c1.521-1.595,2.968-3.265,4.586-4.751
			c1.922-1.766,3.376-4.012,5.529-5.618c0.168,0.259,0.264,0.343,0.279,0.44c0.501,3.435,1.815,6.584,3.342,9.666
			c0.316,0.644,0.479,1.362,0.715,2.044c-1.561-0.75-2.447-2.072-3.416-3.316c-0.755,0.271-0.698,0.847-0.566,1.323
			c0.328,1.175,0.73,2.333,1.13,3.488c0.446,1.29,0.926,2.57,1.284,3.974c-3.336-1.087-6.873-1.391-9.847-3.524
			c-0.733,0.738-1.38,1.389-2.156,2.171c-0.446-0.412-0.876-0.786-1.282-1.186c-0.025-0.023-0.052-0.054-0.079-0.078
			c-0.011,0.338-0.026,0.68-0.026,1.022c0,3.041,0.434,5.976,1.226,8.762c0.638-0.206,1.297-0.075,2.002,0.333
			c0.618,0.354,1.302,0.369,1.884-0.241c-0.045,0.605-0.084,1.149-0.125,1.693c0.123,0.032,0.245,0.065,0.369,0.097
			c0.346-0.691,0.691-1.385,1.125-2.252c0.246,0.537,0.383,0.836,0.516,1.124c0.285,0.04,0.553,0.075,0.871,0.118
			c-0.16,0.529-0.289,0.961-0.493,1.633c1.027-0.6,1.514-1.658,2.6-1.373c0.253-0.398,0.46-0.728,0.606-0.961
			c0.287,0.202,0.479,0.363,0.692,0.483c0.203,0.116,0.425,0.192,0.79,0.35c-1.431,1.492-2.75,2.867-4.141,4.32
			c0.402,0.13,0.59,0.191,0.734,0.237c-0.109,0.528-0.206,0.984-0.303,1.444c0.089,0.04,0.179,0.086,0.265,0.128
			c0.831-0.627,1.662-1.255,2.526-1.91c0.138,0.152,0.322,0.354,0.52,0.569c0.68-0.398,1.299-0.768,2.111-1.25
			c0.345,0.169,0.854,0.422,1.544,0.758c0.342-0.438,0.729-0.931,1.209-1.542c0.048,0.394,0.079,0.629,0.107,0.869
			c0.252-0.014,0.451-0.022,0.599-0.028c0.077,0.295,0.135,0.522,0.203,0.792c0.324-0.113,0.562-0.199,0.888-0.314
			c0.483,0.436,0.979,0.887,1.519,1.375c0.337-0.053,0.804-0.127,1.312-0.206c0.251-0.214,0.54-0.46,0.829-0.705
			c0.075,0.051,0.151,0.104,0.227,0.158c-0.169,0.51-0.337,1.02-0.504,1.53c0.088,0.033,0.179,0.067,0.267,0.102
			c1.058-1.164,0.975-2.908,1.989-4.124c-0.125,1.038-0.247,2.078-0.389,3.263c0.769-0.255,1.352-0.443,2.008-0.663
			c0.062,0.438,0.108,0.791,0.164,1.197c0.309,0.05,0.586,0.094,0.852,0.135c0.24-0.403,0.445-0.744,0.647-1.082
			c0.061,0.032,0.118,0.065,0.177,0.1c-0.082,0.391-0.165,0.785-0.254,1.189c0.688,0.139,1.326,0.266,1.96,0.399
			c-0.006,0.028-0.012,0.054-0.019,0.086c0.929,0.195,1.854,0.395,2.706,0.579c0.231-0.351,0.345-0.521,0.475-0.718
			c0.181,0.214,0.321,0.382,0.321,0.382c0.698,0.203,1.206,0.353,1.729,0.508c0.7-0.203,1.441-0.417,2.092-0.605
			c1.447,0.609,2.685,1.631,4.29,0.936c0.061-0.026,0.147-0.01,0.224,0c0.93,0.129,1.863,0.262,2.729,0.385
			c0.229-0.371,0.373-0.606,0.422-0.686c0.542,0.218,0.951,0.377,1.449,0.577c0.068,0.128,0.191,0.359,0.312,0.588
			c0.075-0.001,0.149-0.008,0.223-0.009c0.573-0.452,1.146-0.908,1.771-1.404c0.541-0.02,1.122-0.047,1.822-0.079
			c0.039-0.566,0.08-1.167,0.121-1.768c0.092-0.003,0.185-0.004,0.274-0.006c0.082,0.449,0.167,0.899,0.277,1.5
			c0.157-0.434,0.265-0.73,0.377-1.045c0.227,0.541,0.427,1.017,0.726,1.73c0.237-0.543,0.354-0.801,0.454-1.028
			c0.25,0.264,0.512,0.54,0.787,0.833c0.455-0.23,0.813-0.412,1.123-0.566c0.076-0.681,0.145-1.296,0.237-2.135
			c0.312,1.002,0.543,1.746,0.784,2.522c0.37,0.024,0.693,0.046,0.918,0.062c0.43-0.381,0.777-0.69,1.16-1.031
			c0.15-0.483-0.183-1.256,0.853-1.564c0.04,0.879,0.073,1.662,0.105,2.439c0.113,0.017,0.225,0.033,0.334,0.047
			c0.15-0.389,0.299-0.776,0.494-1.28c0.142,0.49,0.245,0.854,0.372,1.292c2.237-3.546,3.8-7.561,4.503-11.865
			C85.807,38.553,85.343,38.247,84.879,37.928z M28.02,40.708c-0.111-0.033-0.225-0.064-0.335-0.097
			c0.146-0.511,0.292-1.02,0.438-1.534c0.105,0.031,0.208,0.062,0.312,0.09C28.296,39.679,28.157,40.193,28.02,40.708z
			 M31.213,34.875c-0.375,0.037-0.747,0.075-1.271,0.125c0.029-0.294,0.051-0.492,0.087-0.827c0.473,0.195,0.848,0.347,1.222,0.502
			C31.236,34.741,31.225,34.806,31.213,34.875z M31.65,36.443c0.128-0.51,0.253-1.023,0.412-1.669
			C32.554,35.505,32.525,35.616,31.65,36.443z M35.766,37.083c-0.25-0.372-0.485-0.721-0.741-1.106
			C36.039,36.052,36.083,36.121,35.766,37.083z M69.866,22.553c0.724,0.655,1.446,1.31,2.169,1.965
			c-0.076,0.084-0.152,0.168-0.226,0.252c-0.825-0.544-1.482-1.273-2.304-1.82C69.625,22.818,69.744,22.685,69.866,22.553z
			 M69.534,47.491c-0.434-0.267-0.67-0.417-1.138-0.704c0.478-0.285,0.702-0.421,1.079-0.648
			C69.495,46.618,69.508,46.928,69.534,47.491z M68.89,24.915c0.095,0.014,0.189,0.026,0.284,0.04
			c-0.045,0.55-0.092,1.104-0.135,1.655c-0.146-0.026-0.29-0.053-0.433-0.079C68.701,25.991,68.794,25.451,68.89,24.915z
			 M67.943,35.909c0.179-0.845,0.358-1.688,0.538-2.53C68.805,34.081,68.597,35.072,67.943,35.909z M66.869,19.82
			c0.618,0.317,1.05,0.739,0.771,1.798c-0.402-0.671-0.699-1.168-1-1.665C66.718,19.909,66.794,19.864,66.869,19.82z M62.074,21.308
			c1.257,1.985,2.445,3.869,3.636,5.751c0.168,0.094,0.336,0.188,0.502,0.282c0.104-0.28,0.197-0.567,0.324-0.838
			c0.105-0.233,0.25-0.45,0.388-0.692c0.38,0.565,0.728,1.085,1.134,1.693c-0.175,0.251-0.381,0.544-0.555,0.798
			c-2.158,0.591-3.922-0.339-5.727-1.273c-0.477,0.662-0.898,1.247-1.369,1.892c-0.532-0.555-0.979-1.022-1.458-1.52
			c-0.998,1.09-1.917,2.095-2.814,3.073c-0.379,0.036-0.702,0.062-1.082,0.098c-0.457-0.679-0.928-1.379-1.523-2.261
			C56.26,25.887,58.979,23.51,62.074,21.308z M67.883,36.888c-0.299,1.417-0.601,2.835-0.894,4.21
			C66.637,40.375,66.925,38.708,67.883,36.888z M65.652,39.887c0.329-1.39,0.34-2.871,1.25-4.091
			C66.579,37.187,66.777,38.728,65.652,39.887z M64.685,39.404c-0.043,0.962-0.087,1.92-0.138,3.072
			c-0.324-0.314-0.568-0.547-0.892-0.861c0.331-0.833,0.613-1.541,0.894-2.249C64.595,39.38,64.639,39.393,64.685,39.404z
			 M63.527,39.779c-0.148,0.439-0.239,0.714-0.395,1.172c-0.342-0.435-0.556-0.705-0.961-1.218
			C62.742,39.751,63.049,39.763,63.527,39.779z M61.464,32.13c-0.029,0.817-0.057,1.633-0.083,2.446
			c-0.106,0.004-0.212,0.006-0.318,0.007c0.07-0.82,0.137-1.641,0.206-2.463C61.334,32.125,61.397,32.128,61.464,32.13z
			 M66.008,48.072c-1.169-0.192-2.337-0.356-3.535-0.536c-0.215,0.368-0.398,0.675-0.619,1.05c-2.297-0.823-4.029-2.59-6.058-3.849
			c-0.075,0.062-0.149,0.127-0.224,0.191c0.154,1.152,0.311,2.304,0.465,3.454c-0.046,0.012-0.092,0.026-0.134,0.037
			c-1.916-2.662-3.831-5.324-6.011-8.356c0.125-1.831,0.282-4.149,0.454-6.693c-0.519,0.33-0.872,0.549-1.468,0.924
			c0.602-2.962,0.841-5.781,1.871-8.741c1.48,2.085,2.791,3.96,4.129,5.813c1.019,1.406,2.072,2.789,3.113,4.18
			c0.09,0.117,0.225,0.2,0.312,0.319c2.376,3.297,5.308,6.119,7.928,9.209c0.812,0.962,1.788,1.78,2.67,2.684
			c0.237,0.244,0.4,0.556,0.691,0.968C68.131,49.125,67.131,48.258,66.008,48.072z M69.856,35.341
			c-0.114-0.029-0.229-0.055-0.343-0.083c0.364-1.289,0.729-2.571,1.095-3.861c0.078,0.016,0.156,0.032,0.236,0.048
			C70.515,32.743,70.187,34.044,69.856,35.341z M71.902,36.491c-0.018,0.471,0.005,0.946-0.06,1.41
			c-0.068,0.465-0.218,0.921-0.396,1.628C71.367,38.336,71.116,37.385,71.902,36.491z M71.635,47.743
			c-0.026-0.61-0.042-0.971-0.064-1.52c0.343,0.25,0.524,0.383,0.797,0.582C72.139,47.099,71.956,47.333,71.635,47.743z
			 M72.492,40.173c-0.071-0.008-0.145-0.017-0.22-0.022c0.103-0.853,0.203-1.704,0.305-2.557c0.089,0.01,0.181,0.021,0.271,0.03
			C72.729,38.474,72.609,39.322,72.492,40.173z"/>
	</g>
	<text transform="matrix(1 0 0 1 14.1499 124.8965)"><tspan x="0" y="0" font-family="'OpenSans-Light'" font-size="12.9105">design</tspan><tspan x="38.534" y="0" font-family="'OpenSans-Light'" font-size="12.9105" letter-spacing="-1"> </tspan><tspan x="40.674" y="0" font-family="'Handwriting-Dakota'" font-size="12.9105">&amp;</tspan><tspan x="50.035" y="0" font-family="'OpenSans-Light'" font-size="12.9105" letter-spacing="-1"> </tspan><tspan x="51.917" y="0" font-family="'OpenSans-Light'" font-size="12.9105">code</tspan></text>
	<text transform="matrix(1 0 0 1 -1.9307 109.2666)"><tspan x="0" y="0" font-family="'CanterBold'" font-size="50.9979" letter-spacing="3">bump</tspan><tspan x="79.148" y="0" font-family="'CanterBold'" font-size="50.9979" letter-spacing="4">a</tspan><tspan x="97.558" y="0" font-family="'CanterBold'" font-size="50.9979">s</tspan></text>
</g>
</svg>
