<svg width="50px" height="50px" viewBox="0 0 50 50" version="1.1" xmlns="http://www.w3.org/2000/svg" xmlns:xlink="http://www.w3.org/1999/xlink">
    <title>Instagram</title>
    <defs></defs>
    <g id="Page-1" stroke="none" stroke-width="1" fill="none" fill-rule="evenodd">
        <g id="Intsagram" fill="#000000">
            <path d="M32.5 25c0 4.142-3.358 7.5-7.5 7.5s-7.5-3.358-7.5-7.5c0-0.427 0.045-0.845 0.123-1.25h-2.623v9.992c0 0.695 0.562 1.258 1.258 1.258h17.487c0.692 0 1.255-0.563 1.255-1.258v-9.992h-2.623c0.077 0.405 0.123 0.823 0.123 1.25zM25 30c2.76 0 5-2.24 5-5s-2.24-5-5-5-5 2.24-5 5 2.24 5 5 5zM31 19.75h2.998c0.415 0 0.752-0.337 0.752-0.75v-2.998c0-0.415-0.338-0.752-0.752-0.752h-2.998c-0.415 0-0.752 0.337-0.752 0.752v2.998c0.002 0.412 0.34 0.75 0.752 0.75zM25 1c-13.255 0-24 10.745-24 24s10.745 24 24 24c13.255 0 24-10.745 24-24s-10.745-24-24-24zM37.5 34.723c0 1.527-1.25 2.777-2.777 2.777h-19.445c-1.527 0-2.777-1.25-2.777-2.777v-19.445c0-1.527 1.25-2.777 2.777-2.777h19.445c1.527 0 2.777 1.25 2.777 2.777v19.445z"></path>
        </g>
    </g>
</svg>