<svg width="50px" height="50px" viewBox="0 0 50 50" version="1.1" xmlns="http://www.w3.org/2000/svg" xmlns:xlink="http://www.w3.org/1999/xlink">
    <title>LinkedIn</title>
    <defs></defs>
    <g id="Page-2" stroke="none" stroke-width="1" fill="none" fill-rule="evenodd">
        <g id="Linkedin" fill="#000000">
            <path d="M25 1c-13.255 0-24 10.745-24 24s10.745 24 24 24 24-10.745 24-24-10.745-24-24-24zM19.125 34.948h-4.86v-15.64h4.86v15.64zM16.665 17.387c-1.535 0-2.527-1.087-2.527-2.433 0-1.373 1.023-2.427 2.59-2.427s2.527 1.055 2.558 2.427c0 1.345-0.99 2.433-2.62 2.433zM36.875 34.948h-4.86v-8.667c0-2.017-0.705-3.387-2.462-3.387-1.342 0-2.14 0.927-2.492 1.82-0.13 0.317-0.162 0.767-0.162 1.215v9.017h-4.863v-10.65c0-1.952-0.062-3.585-0.127-4.99h4.223l0.223 2.173h0.098c0.64-1.020 2.208-2.525 4.83-2.525 3.198 0 5.595 2.142 5.595 6.748v9.248z"></path>
        </g>
    </g>
</svg>