<svg width="50px" height="50px" viewBox="0 0 50 50" version="1.1" xmlns="http://www.w3.org/2000/svg" xmlns:xlink="http://www.w3.org/1999/xlink">
    <title>Pinterest</title>
    <defs></defs>
    <g id="Page-1" stroke="none" stroke-width="1" fill="none" fill-rule="evenodd">
        <g id="Pinterest" fill="#000000">
            <path d="M25 1c-13.255 0-24 10.745-24 24s10.745 24 24 24 24-10.745 24-24-10.745-24-24-24zM26.642 30.688c-1.54-0.117-2.185-0.88-3.39-1.61-0.662 3.477-1.473 6.813-3.873 8.555-0.742-5.26 1.085-9.205 1.935-13.398-1.448-2.438 0.173-7.34 3.227-6.135 3.758 1.49-3.255 9.063 1.452 10.010 4.915 0.985 6.923-8.53 3.875-11.62-4.405-4.467-12.817-0.102-11.783 6.292 0.25 1.563 1.867 2.038 0.645 4.195-2.817-0.625-3.66-2.848-3.55-5.81 0.173-4.85 4.358-8.248 8.552-8.715 5.308-0.59 10.288 1.948 10.977 6.942 0.773 5.635-2.398 11.733-8.070 11.292z"></path>
        </g>
    </g>
</svg>