<svg width="50px" height="50px" viewBox="0 0 50 50" version="1.1" xmlns="http://www.w3.org/2000/svg" xmlns:xlink="http://www.w3.org/1999/xlink">
    <title>Twitter</title>
    <defs></defs>
    <g id="Page-2" stroke="none" stroke-width="1" fill="none" fill-rule="evenodd">
        <g id="Twitter" fill="#000000">
            <path d="M25 1c-13.255 0-24 10.745-24 24s10.745 24 24 24 24-10.745 24-24-10.745-24-24-24zM34.763 20.66c0.010 0.205 0.012 0.41 0.012 0.61 0 6.25-4.752 13.452-13.448 13.452-2.67 0-5.155-0.78-7.245-2.125 0.367 0.045 0.745 0.063 1.127 0.063 2.215 0 4.252-0.752 5.87-2.023-2.067-0.040-3.813-1.405-4.415-3.28 0.287 0.052 0.583 0.083 0.887 0.083 0.43 0 0.85-0.058 1.245-0.165-2.163-0.435-3.792-2.345-3.792-4.635v-0.058c0.637 0.352 1.367 0.567 2.142 0.592-1.27-0.85-2.102-2.295-2.102-3.937 0-0.865 0.233-1.68 0.64-2.377 2.333 2.86 5.813 4.74 9.742 4.942-0.083-0.348-0.123-0.708-0.123-1.080 0-2.608 2.115-4.727 4.727-4.727 1.358 0 2.587 0.575 3.45 1.495 1.077-0.215 2.087-0.605 3-1.148-0.352 1.102-1.1 2.030-2.077 2.617 0.958-0.117 1.867-0.37 2.715-0.748-0.633 0.948-1.435 1.783-2.358 2.448z"></path>
        </g>
    </g>
</svg>